<svg xmlns="http://www.w3.org/2000/svg" xmlns:xlink="http://www.w3.org/1999/xlink" viewBox="0 0 233.6 275.5"><defs><style>.cls-1{fill:url(#Безымянный_градиент_204);}</style><linearGradient id="Безымянный_градиент_204" x1="199.14" y1="241.32" x2="24.16" y2="66.34" gradientUnits="userSpaceOnUse"><stop offset="0" stop-color="aqua"/><stop offset="1" stop-color="#ae00ff"/></linearGradient></defs><g id="Слой_2" data-name="Слой 2"><g id="Слой_1-2" data-name="Слой 1"><path id="reboot" class="cls-1" d="M209.16,87.2c-.95-1.22-1.92-2.43-2.91-3.61A9.09,9.09,0,0,0,192.86,83h0l-5.76,5.76a9.06,9.06,0,0,0-.55,12.21q2,2.41,3.87,5c.84,1.17,1.66,2.36,2.44,3.56a89.57,89.57,0,0,1,14.64,49.2c0,49.87-40.61,90.3-90.7,90.3A90.29,90.29,0,0,1,102.48,69.52l-16.3,16.3a14.79,14.79,0,0,0-4.32,10.43h0A14.75,14.75,0,0,0,96.61,111h0A14.71,14.71,0,0,0,107,106.68l30.32-30.32,4.48-4.48L158.22,55.5l-9.06-9.06-11.8-11.8L107,4.32A14.71,14.71,0,0,0,96.61,0h0A14.75,14.75,0,0,0,81.86,14.75h0a14.79,14.79,0,0,0,4.32,10.43l17.46,17.46A116.58,116.58,0,0,0,0,158.7a119.51,119.51,0,0,0,.68,12.62,116.31,116.31,0,0,0,33.71,70.15,118.22,118.22,0,0,0,10.91,9.59,116.36,116.36,0,0,0,72.1,24.44c63.72-.32,115.88-52.48,116.2-116.2A116.28,116.28,0,0,0,209.16,87.2Z"/></g></g></svg>